<?xml version="1.0" encoding="UTF-8"?>
<svg id="Camada_1" data-name="Camada 1" xmlns="http://www.w3.org/2000/svg" viewBox="0 0 511.83 527.19">
  <defs>
    <style>
      .cls-1 {
        fill: #23355d;
      }

      .cls-2 {
        fill: #dae7f7;
      }

      .cls-3 {
        fill: #97a6c3;
      }

      .cls-4 {
        fill: #668cb0;
      }

      .cls-5 {
        fill: #cbdcf0;
      }
    </style>
  </defs>
  <g>
    <path class="cls-4" d="m256.38,527.19L9.19,408.29c-5.75-2.77-9.19-7.34-9.19-12.22v-218.46c0-11.94,19.15-18.99,33.22-12.22l223.16,107.34v254.46Z"/>
    <path class="cls-5" d="m255.45,527.19l247.19-118.9c5.75-2.77,9.19-7.34,9.19-12.22v-218.46c0-11.94-19.15-18.99-33.22-12.22l-223.16,107.34v254.46Z"/>
  </g>
  <g>
    <circle class="cls-2" cx="259.08" cy="76.58" r="76.58"/>
    <path class="cls-1" d="m256.3,527.19L47.93,383.89c-4.85-3.33-7.75-8.84-7.75-14.73V105.89c0-14.39,16.14-22.88,28-14.73l188.12,129.37v306.66Z"/>
    <path class="cls-3" d="m255.52,527.19l208.37-143.29c4.85-3.33,7.75-8.84,7.75-14.73V105.89c0-14.39-16.14-22.88-28-14.73l-188.12,129.37v306.66Z"/>
  </g>
</svg>