<?xml version="1.0" encoding="UTF-8"?><svg id="Camada_2" xmlns="http://www.w3.org/2000/svg" xmlns:xlink="http://www.w3.org/1999/xlink" viewBox="0 0 409.66 279.74"><defs><style>.cls-1{fill:url(#Gradiente_sem_nome_36-2);}.cls-2{fill:url(#Gradiente_sem_nome_36-3);}.cls-3{fill:url(#Gradiente_sem_nome_36);}</style><linearGradient id="Gradiente_sem_nome_36" x1="37.82" y1="116.37" x2="430.26" y2="19.15" gradientUnits="userSpaceOnUse"><stop offset="0" stop-color="#5594b6"/><stop offset=".05" stop-color="#518dad"/><stop offset=".15" stop-color="#4d87a6"/><stop offset=".33" stop-color="#4d86a4"/><stop offset=".48" stop-color="#4b83a0"/><stop offset=".59" stop-color="#467b96"/><stop offset=".69" stop-color="#3d6d86"/><stop offset=".79" stop-color="#315a6e"/><stop offset=".88" stop-color="#214150"/><stop offset=".93" stop-color="#18323e"/></linearGradient><linearGradient id="Gradiente_sem_nome_36-2" x1="29.01" y1="198.03" x2="421.45" y2="100.81" xlink:href="#Gradiente_sem_nome_36"/><linearGradient id="Gradiente_sem_nome_36-3" x1="22.9" y1="282.95" x2="415.34" y2="185.72" xlink:href="#Gradiente_sem_nome_36"/></defs><g id="Camada_1-2"><path class="cls-3" d="m409.66,0l-33.7,82.97-9.01-22.31c-38.29,34.88-75.46,52.5-110.75,52.5-3.36,0-6.69-.16-10.02-.48-22.64-2.18-38.28-10.7-53.4-18.95-12.23-6.67-24.88-13.57-42.62-18.05-33.51-8.48-72.55-1.01-116.02,22.19-6.36,3.39-14.27.99-17.66-5.37-3.4-6.36-.99-14.27,5.37-17.66,49.38-26.36,94.71-34.59,134.72-24.47,20.95,5.29,35.7,13.34,48.72,20.44,14.56,7.94,26.07,14.21,43.39,15.88,30.33,2.91,63.76-11.97,99.54-44.26l-21.49-8.67L409.66,0Z"/><path class="cls-1" d="m400.85,81.66l-33.7,82.97-9.01-22.31c-38.29,34.88-75.46,52.5-110.75,52.5-3.36,0-6.69-.16-10.02-.48-22.64-2.18-38.28-10.7-53.4-18.95-12.23-6.67-24.88-13.57-42.62-18.05-33.51-8.48-72.55-1.01-116.02,22.19-6.36,3.39-14.27.99-17.66-5.37-3.4-6.36-.99-14.27,5.37-17.66,49.38-26.36,94.71-34.59,134.72-24.47,20.95,5.29,35.7,13.34,48.72,20.44,14.56,7.94,26.07,14.21,43.39,15.88,30.33,2.91,63.76-11.97,99.54-44.26l-21.49-8.67,82.95-33.76Z"/><path class="cls-2" d="m394.74,166.57l-33.7,82.97-9.01-22.31c-38.29,34.88-75.46,52.5-110.75,52.5-3.36,0-6.69-.16-10.02-.48-22.64-2.18-38.28-10.7-53.4-18.95-12.23-6.67-24.88-13.57-42.62-18.05-33.51-8.48-72.55-1.01-116.02,22.19-6.36,3.39-14.27.99-17.66-5.37-3.4-6.36-.99-14.27,5.37-17.66,49.38-26.36,94.71-34.59,134.72-24.47,20.95,5.29,35.7,13.34,48.72,20.44,14.56,7.94,26.07,14.21,43.39,15.88,30.33,2.91,63.76-11.97,99.54-44.26l-21.49-8.67,82.95-33.76Z"/></g></svg>